<?xml version="1.0" encoding="iso-8859-1"?>
<!-- Generator: Adobe Illustrator 18.0.0, SVG Export Plug-In . SVG Version: 6.00 Build 0)  -->
<!DOCTYPE svg PUBLIC "-//W3C//DTD SVG 1.1//EN" "http://www.w3.org/Graphics/SVG/1.1/DTD/svg11.dtd">
<svg version="1.1" id="Capa_1" xmlns="http://www.w3.org/2000/svg" xmlns:xlink="http://www.w3.org/1999/xlink" x="0px" y="0px"
	 viewBox="4180 3088 50 50" xml:space="preserve">
<g>
	<path style="fill:#888;" d="M 4222.7246 3104.0576 C 4225.0559 3104.0576 4226.9458 3105.9475 4226.9458 3108.2788 C 4226.9458 3110.6101 4225.0559 3112.5 4222.7246 3112.5 L 4193.6899 3112.5 C 4191.3586 3112.5 4189.4688 3110.6101 4189.4688 3108.2788 C 4189.4688 3105.9475 4191.3586 3104.0576 4193.6899 3104.0576 L 4222.7246 3104.0576 M 4198.23 3110.41 L 4194.99 3110.41 L 4194.99 3105.11 L 4193.69 3105.11 L 4193.69 3111.5 L 4198.23 3111.5 L 4198.23 3110.41 M 4201.01 3105.06 L 4198.5 3111.5 L 4199.88 3111.5 L 4200.41 3110.04 L 4202.98 3110.04 L 4203.55 3111.5 L 4204.96 3111.5 L 4202.38 3105.06 L 4201.01 3105.06 M 4201.68 3106.56 L 4202.57 3108.95 L 4200.81 3108.95 L 4201.68 3106.56 M 4207.85 3111.5 C 4208.6767 3111.4933 4209.2 3111.48 4209.42 3111.46 C 4209.7667 3111.42 4210.0567 3111.3167 4210.29 3111.15 C 4210.5233 3110.9833 4210.71 3110.7633 4210.85 3110.49 C 4210.9833 3110.21 4211.05 3109.9233 4211.05 3109.63 C 4211.05 3109.2567 4210.9467 3108.9333 4210.74 3108.66 C 4210.5267 3108.3867 4210.2233 3108.1933 4209.83 3108.08 C 4210.11 3107.9533 4210.33 3107.7633 4210.49 3107.51 C 4210.6567 3107.2567 4210.74 3106.98 4210.74 3106.68 C 4210.74 3106.4 4210.6733 3106.15 4210.54 3105.93 C 4210.4067 3105.7033 4210.24 3105.5233 4210.04 3105.39 C 4209.8467 3105.2567 4209.6233 3105.1667 4209.37 3105.12 C 4209.1233 3105.08 4208.7433 3105.06 4208.23 3105.06 L 4205.66 3105.06 L 4205.66 3111.5 L 4207.85 3111.5 M 4207.7 3106.13 C 4208.3133 3106.13 4208.6867 3106.1367 4208.82 3106.15 C 4209.0333 3106.1767 4209.1967 3106.2533 4209.31 3106.38 C 4209.4167 3106.5 4209.47 3106.66 4209.47 3106.86 C 4209.47 3107.0733 4209.4067 3107.2433 4209.28 3107.37 C 4209.1533 3107.4967 4208.9767 3107.5733 4208.75 3107.6 C 4208.63 3107.6133 4208.3167 3107.62 4207.81 3107.62 L 4206.96 3107.62 L 4206.96 3106.13 L 4207.7 3106.13 M 4208.01 3108.69 C 4208.6033 3108.69 4208.9867 3108.72 4209.16 3108.78 C 4209.34 3108.8467 4209.4767 3108.9467 4209.57 3109.08 C 4209.6633 3109.2133 4209.71 3109.3767 4209.71 3109.57 C 4209.71 3109.7967 4209.65 3109.98 4209.53 3110.12 C 4209.4033 3110.2533 4209.2433 3110.3367 4209.05 3110.37 C 4208.9233 3110.3967 4208.6267 3110.41 4208.16 3110.41 L 4206.96 3110.41 L 4206.96 3108.69 L 4208.01 3108.69 M 4217.05 3110.41 L 4213.45 3110.41 L 4213.45 3108.66 L 4216.69 3108.66 L 4216.69 3107.58 L 4213.45 3107.58 L 4213.45 3106.15 L 4216.93 3106.15 L 4216.93 3105.06 L 4212.15 3105.06 L 4212.15 3111.5 L 4217.05 3111.5 L 4217.05 3110.41 M 4222.72 3110.41 L 4219.49 3110.41 L 4219.49 3105.11 L 4218.19 3105.11 L 4218.19 3111.5 L 4222.72 3111.5 L 4222.72 3110.41"/>
	<path style="fill:#888;" d="M 4227.6714 3115.0576 L 4223.4502 3123.5 L 4186.916 3123.5 L 4191.1372 3115.0576 L 4227.6714 3115.0576 M 4192.35 3117.43 L 4193.62 3122.5 L 4194.87 3122.5 L 4196.15 3117.43 L 4196.15 3122.5 L 4197.36 3122.5 L 4197.36 3116.06 L 4195.41 3116.06 L 4194.25 3120.45 L 4193.08 3116.06 L 4191.14 3116.06 L 4191.14 3122.5 L 4192.35 3122.5 L 4192.35 3117.43 M 4200.51 3116.06 L 4198 3122.5 L 4199.38 3122.5 L 4199.91 3121.04 L 4202.48 3121.04 L 4203.05 3122.5 L 4204.46 3122.5 L 4201.88 3116.06 L 4200.51 3116.06 M 4201.18 3117.56 L 4202.07 3119.95 L 4200.31 3119.95 L 4201.18 3117.56 M 4206.47 3120.55 L 4207.52 3119.48 L 4209.3 3122.5 L 4210.98 3122.5 L 4208.42 3118.57 L 4210.85 3116.06 L 4209.1 3116.06 L 4206.47 3118.92 L 4206.47 3116.06 L 4205.17 3116.06 L 4205.17 3122.5 L 4206.47 3122.5 L 4206.47 3120.55 M 4216.55 3121.41 L 4212.95 3121.41 L 4212.95 3119.66 L 4216.19 3119.66 L 4216.19 3118.58 L 4212.95 3118.58 L 4212.95 3117.15 L 4216.43 3117.15 L 4216.43 3116.06 L 4211.65 3116.06 L 4211.65 3122.5 L 4216.55 3122.5 L 4216.55 3121.41 M 4218.96 3119.81 L 4219.22 3119.81 C 4219.52 3119.81 4219.74 3119.8333 4219.88 3119.88 C 4220.0133 3119.9333 4220.1433 3120.0233 4220.27 3120.15 C 4220.39 3120.2833 4220.6167 3120.6 4220.95 3121.1 L 4221.89 3122.5 L 4223.45 3122.5 L 4222.66 3121.24 C 4222.3533 3120.74 4222.1067 3120.3933 4221.92 3120.2 C 4221.74 3120 4221.51 3119.82 4221.23 3119.66 C 4221.79 3119.5733 4222.2133 3119.3733 4222.5 3119.06 C 4222.7867 3118.7467 4222.93 3118.3467 4222.93 3117.86 C 4222.93 3117.48 4222.8367 3117.1433 4222.65 3116.85 C 4222.4567 3116.55 4222.2067 3116.3433 4221.9 3116.23 C 4221.5867 3116.1167 4221.0867 3116.06 4220.4 3116.06 L 4217.66 3116.06 L 4217.66 3122.5 L 4218.96 3122.5 L 4218.96 3119.81 M 4219.97 3117.15 C 4220.5033 3117.15 4220.82 3117.1567 4220.92 3117.17 C 4221.1333 3117.2033 4221.2967 3117.2867 4221.41 3117.42 C 4221.53 3117.5533 4221.59 3117.73 4221.59 3117.95 C 4221.59 3118.1433 4221.5467 3118.3033 4221.46 3118.43 C 4221.3667 3118.5567 4221.2433 3118.6467 4221.09 3118.7 C 4220.9367 3118.7533 4220.5467 3118.78 4219.92 3118.78 L 4218.96 3118.78 L 4218.96 3117.15 L 4219.97 3117.15"/>
</g>
</svg>
